<?xml version="1.0" encoding="UTF-8" standalone="no"?>
<!-- Created with Inkscape (http://www.inkscape.org/) -->

<svg
   width="137.00145mm"
   height="118.73332mm"
   viewBox="0 0 137.00145 118.73332"
   version="1.1"
   id="svg1"
   inkscape:version="1.4.2 (ebf0e940d0, 2025-05-08)"
   sodipodi:docname="flocknet.svg"
   xmlns:inkscape="http://www.inkscape.org/namespaces/inkscape"
   xmlns:sodipodi="http://sodipodi.sourceforge.net/DTD/sodipodi-0.dtd"
   xmlns="http://www.w3.org/2000/svg"
   xmlns:svg="http://www.w3.org/2000/svg">
  <sodipodi:namedview
     id="namedview1"
     pagecolor="#000000"
     bordercolor="#000000"
     borderopacity="0.25"
     inkscape:showpageshadow="2"
     inkscape:pageopacity="0.0"
     inkscape:pagecheckerboard="0"
     inkscape:deskcolor="#d1d1d1"
     inkscape:document-units="mm"
     inkscape:zoom="1"
     inkscape:cx="302"
     inkscape:cy="300.5"
     inkscape:window-width="1920"
     inkscape:window-height="1015"
     inkscape:window-x="0"
     inkscape:window-y="34"
     inkscape:window-maximized="1"
     inkscape:current-layer="layer1" />
  <defs
     id="defs1" />
  <g
     inkscape:label="Layer 1"
     inkscape:groupmode="layer"
     id="layer1"
     transform="translate(-57.364457,-75.007308)">
    <path
       id="path1-6"
       style="display:inline;fill:#1a1a1a;fill-opacity:1;stroke-width:0.001;stroke-linecap:round;stroke-linejoin:round;paint-order:fill markers stroke"
       d="m 65.678162,114.44418 c -3.193786,7.1798 -4.84412,14.95031 -4.844149,22.80842 6.8e-5,30.99387 25.125696,56.11927 56.119567,56.11906 30.99367,-7e-5 56.11899,-25.12539 56.11906,-56.11906 -3e-5,-7.85811 -1.9428,-15.6871 -5.13659,-22.86691 z"
       sodipodi:nodetypes="cccccc" />
    <circle
       style="display:inline;fill:#252525;fill-opacity:1;stroke-width:0.001;stroke-linecap:round;stroke-linejoin:round;paint-order:fill markers stroke"
       id="path1-6-4"
       cx="116.8147"
       cy="137.35439"
       r="56.119183" />
    <path
       id="path1-6-47"
       style="fill:#434343;fill-opacity:1;stroke-width:0.0010122;stroke-linecap:round;stroke-linejoin:round;paint-order:fill markers stroke"
       d="m 169.22365,114.63176 -104.769839,0.0584 c -3.27224,7.1798 -4.963101,14.95031 -4.963132,22.80842 2e-5,9.7041 2.523428,18.83332 6.96498,26.79578 H 167.52091 c 4.44155,-7.96247 6.96545,-17.09168 6.96548,-26.79578 -3e-5,-7.85811 -1.9905,-15.68701 -5.26274,-22.86682 z" />
    <path
       id="path1"
       style="display:inline;fill:#1a1a1a;fill-opacity:1;stroke-width:0.001;stroke-linecap:round;stroke-linejoin:round;paint-order:fill markers stroke"
       d="m 67.589156,164.4127 a 56.119183,56.119183 0 0 0 49.311204,29.32793 56.119183,56.119183 0 0 0 49.31172,-29.32793 z" />
    <path
       d="m 164.04115,107.087 a 51.842384,46.59111 0 0 1 3.3414,6.60942 l 26.98336,-19.685104 -10.73474,0.325561 c 0,0 -4.01211,1.788914 -7.15667,2.276864 -3.14455,0.487947 -4.17435,2.981711 -5.36711,4.879289 -0.32896,0.52334 -3.12015,2.67599 -7.06624,5.59397 z"
       style="fill:#ffffff;stroke:none;stroke-width:0.101;stroke-linecap:round;stroke-linejoin:round;paint-order:fill markers stroke"
       id="path6" />
    <path
       d="m 187.36789,80.614718 -10.60607,1.688269 c 0,0 -3.75197,2.284749 -6.80889,3.168798 -3.05693,0.884046 -3.76143,3.488754 -4.70307,5.522661 -0.29302,0.632893 -3.43101,3.721639 -7.70961,7.79694 a 51.842384,46.59111 0 0 1 4.70721,5.595524 z"
       style="display:inline;fill:#ffffff;stroke:none;stroke-width:0.101;stroke-linecap:round;stroke-linejoin:round;paint-order:fill markers stroke"
       id="path8" />
    <path
       d="m 175.87815,75.007308 -10.42262,2.591573 c 0,0 -3.54187,2.597973 -6.51174,3.740857 -2.96988,1.142882 -3.44887,3.798432 -4.21267,5.905583 -0.18099,0.499323 -1.88364,2.558843 -4.41368,5.467883 a 51.842384,46.59111 0 0 1 5.71128,4.60282 z"
       style="fill:#ffffff;stroke:none;stroke-width:0.101;stroke-linecap:round;stroke-linejoin:round;paint-order:fill markers stroke"
       id="path13" />
    <path
       d="m 164.04115,107.087 c -10.36186,7.66221 -29.10192,20.64493 -31.73259,23.23633 -1.83006,1.80275 -28.70093,21.75369 -28.70093,21.75369 l -8.831772,8.90665 72.606692,-47.28725 c -0.92083,-2.27789 -2.03802,-4.48774 -3.3414,-6.60942 z"
       style="display:inline;fill:#ffffff;stroke:none;stroke-width:0.101;stroke-linecap:round;stroke-linejoin:round;paint-order:fill markers stroke"
       id="path7"
       sodipodi:nodetypes="cscccc" />
    <path
       d="m 156.02872,97.316024 c -1.77466,-1.658928 -3.68365,-3.197412 -5.71128,-4.60282 -8.14675,9.367126 -50.431353,62.790596 -52.561923,66.046046 -1.40673,2.14946 0.885839,-4.10625 0.885839,-4.10625 l 6.976484,-0.67894 0.16382,-0.18396 -2.17403,-1.71308 c 0,0 0.84541,-0.61946 2.24844,-1.65003 l -1.12189,-0.67179 c 0,0 24.51902,-23.30104 26.10486,-25.32197 0.98084,-1.24993 4.60014,-4.77001 9.14673,-9.08575 z"
       style="display:inline;fill:#ffffff;stroke:none;stroke-width:0.101;stroke-linecap:round;stroke-linejoin:round;paint-order:fill markers stroke"
       id="path15"
       sodipodi:nodetypes="ccsccccccscc" />
    <path
       d="m 162.24746,104.38691 c -1.41038,-1.96883 -2.98391,-3.8393 -4.70721,-5.595524 -9.47136,9.021324 -24.78109,22.713284 -26.94935,25.476414 -1.58584,2.02093 -27.79082,25.85934 -27.79082,25.85934 l 3.72549,1.41568 c 6.56802,-4.82441 24.68862,-19.77541 26.19656,-21.26085 1.20538,-1.18739 5.70678,-4.54847 11.22671,-8.57829 z"
       style="display:inline;fill:#ffffff;stroke:none;stroke-width:0.101;stroke-linecap:round;stroke-linejoin:round;paint-order:fill markers stroke"
       id="path10"
       sodipodi:nodetypes="ccsccscc" />
    <rect
       style="fill:#ffffff;fill-opacity:1;stroke:none;stroke-width:0.101;stroke-linecap:round;stroke-linejoin:round;stroke-dasharray:none;stroke-opacity:1;paint-order:fill markers stroke"
       id="rect17"
       width="3.3703973"
       height="6.6343942"
       x="164.0323"
       y="107.05544" />
    <path
       style="fill:#ffffff;fill-opacity:1;stroke:none;stroke-width:0.101;stroke-linecap:round;stroke-linejoin:round;stroke-dasharray:none;stroke-opacity:1;paint-order:fill markers stroke"
       d="m 149.82031,93.794791 c -0.0551,0.01103 -0.11317,0.0122 -0.16536,0.03307 -0.0253,0.01011 -0.19844,0.08076 -0.19844,0.165364 0,0.01103 0.0234,0.0053 0.0331,0 0.11287,-0.06156 0.20316,-0.182491 0.33073,-0.198437 1.29362,-0.161703 -0.221,0.372827 0.79375,-0.03307 0.0447,-0.01786 0.19844,-0.0369 0.19844,-0.132292 0,-0.05512 -0.0841,0.07245 -0.13229,0.09922 -0.0609,0.03386 -0.1323,0.0441 -0.19844,0.06615 -0.0661,0.06615 -0.11952,0.148214 -0.19844,0.198437 -0.005,0.0032 -0.23151,0.01328 -0.23151,0.09922 0,0.02204 0.0464,-0.0099 0.0661,0 0.0493,0.02466 0.0841,0.07245 0.13229,0.09922 0.0519,0.02883 0.11419,0.03604 0.16536,0.06615 0.46089,0.271113 1.01915,0.610168 1.28985,1.091406 0.027,0.04804 -0.01,0.111133 0,0.165364 0.0178,0.09801 0.166,0.348531 0.0992,0.463021 -0.055,0.09427 -0.16241,0.147045 -0.23152,0.231511 -0.0312,0.03816 -0.0341,0.09486 -0.0661,0.132291 -0.0803,0.09372 -0.16537,0.06364 -0.16537,0.198438 0,0.01103 0.022,0 0.0331,0 0.0661,0 0.13229,0 0.19843,0 0.0661,0 0.1323,0 0.19844,0 0.29252,0 0.70155,-0.04471 0.99219,0 0.0689,0.01061 0.12933,0.05693 0.19844,0.06615 0.0983,0.01312 0.2014,-0.02408 0.29765,0 0.21129,0.05282 0.10184,0.616857 0.0992,0.661458 -0.009,0.152082 0.0417,0.350234 0,0.496094 -0.0109,0.03822 -0.0661,0.05947 -0.0661,0.09922 0,0.130456 0.21271,0.18904 0.29765,0.231511 0.28145,0.140721 0.43217,0.330729 0.76068,0.330729 0.0347,0 0.1031,0.0097 0.13229,0 0.0592,-0.01971 0.0788,-0.100206 0.13229,-0.132292 0.0704,-0.04222 0.27466,0.05607 0.33073,0 0.0435,-0.04344 -0.0343,-0.21305 0,-0.264583 0.0122,-0.01834 0.0464,0.0099 0.0661,0 0.007,-0.0036 0.0259,-0.128707 0.0331,-0.132292 0.0197,-0.0099 0.0464,0.0099 0.0661,0 0.01,-0.0049 -0.008,-0.02527 0,-0.03307 0.008,-0.0078 0.022,0 0.0331,0 0.022,-0.03307 0.0536,-0.06151 0.0661,-0.09922 0.4261,-1.278316 -0.44483,-2.721224 -1.32292,-3.571875 -0.2578,-0.249738 -0.53106,-0.483026 -0.79375,-0.727604 -0.49241,-0.492414 0.13369,0.106952 -0.33073,-0.264584 -0.0609,-0.0487 -0.10548,-0.115459 -0.16536,-0.165364 -0.0855,-0.110686 -0.22736,-0.145362 -0.33073,-0.231511 -0.13132,-0.109429 -0.0775,-0.123592 -0.26459,-0.198437 -0.0522,-0.02088 -0.11204,-0.01529 -0.16536,-0.03307 -0.0468,-0.01558 -0.0851,-0.05198 -0.13229,-0.06615 -0.26948,-0.08084 -0.55686,-0.02455 -0.82683,0 -0.0659,0.006 -0.13386,-0.01434 -0.19843,0 -0.0388,0.0086 -0.0627,0.05049 -0.0992,0.06615 -0.0418,0.01791 -0.0916,0.01275 -0.13229,0.03307 -0.0279,0.01394 -0.0489,0.0402 -0.0661,0.06615 -0.006,0.0092 0.01,0.02814 0,0.03307 -0.0882,0.0441 -0.0662,-0.06615 -0.0662,0.06614"
       id="path17" />
    <path
       style="fill:#ffffff;fill-opacity:1;stroke:none;stroke-width:0.101;stroke-linecap:round;stroke-linejoin:round;stroke-dasharray:none;stroke-opacity:1;paint-order:fill markers stroke"
       id="path18"
       d="m 153.22077,92.99319 c 0.0879,0.218464 0.096,0.456555 0.0417,0.684718 -0.014,0.05904 -0.0346,0.116359 -0.0519,0.174538 -0.0557,0.140068 -0.10024,0.26398 -0.17387,0.397184 -0.0393,0.07117 -0.0861,0.137996 -0.13038,0.206161 -0.10813,0.166262 -0.16253,0.250489 -0.28923,0.401164 -0.0435,0.05179 -0.0915,0.09969 -0.13727,0.149542 -0.0392,0.04496 -0.0804,0.08824 -0.11755,0.13489 -0.15551,0.195239 -0.0501,0.09411 -0.21233,0.270288 -0.2048,0.222367 0.003,-0.01349 -0.19342,0.177488 -0.0319,0.03104 -0.0593,0.06632 -0.089,0.09948 -0.0809,0.09929 -0.19539,0.166352 -0.27382,0.268097 -0.0494,0.06414 -0.0598,0.09954 -0.0923,0.173088 -0.44576,1.449948 0.97247,0.823889 3.42483,2.097561 0.0204,0.01061 0.038,-0.02601 0.0578,-0.03787 0.14482,-0.08711 -0.0248,0.02442 0.13007,-0.0801 0.0923,-0.115777 0.16871,-0.244433 0.26647,-0.356026 0.0297,-0.03391 0.0639,-0.06364 0.0951,-0.0961 0.0961,-0.0997 0.0875,-0.09294 0.17716,-0.198308 0.0558,-0.08672 0.13322,-0.155038 0.1991,-0.233227 0.0169,-0.02008 0.0308,-0.04263 0.0483,-0.06224 0.011,-0.0123 0.0244,-0.02209 0.0366,-0.03312 0.0138,-0.0168 0.0277,-0.0336 0.0415,-0.0504 0.0536,-0.056 0.0908,-0.125126 0.13745,-0.186057 0.007,-0.0093 0.0169,-0.01622 0.0253,-0.02432 0.0123,-0.01643 0.0246,-0.03285 0.0369,-0.04928 0.0867,-0.112163 0.11633,-0.252783 0.1447,-0.388618 0.004,-0.07333 0.0416,-0.118464 0.0724,-0.180726 0.63275,-1.279298 -0.99907,-0.667351 -3.43944,-2.00778 -0.046,0.07486 -0.0866,0.153585 -0.12136,0.234315 -0.0132,0.03069 -0.0219,0.06333 -0.0368,0.09323 -0.0171,0.0344 -0.0785,0.118787 -0.0993,0.148444 -0.10554,0.146601 -0.20552,0.296773 -0.31133,0.44336 -0.0787,0.116083 -0.13431,0.245136 -0.17915,0.377444 -0.30259,1.422162 1.2255,0.933749 3.43996,2.069761 0.0343,0.0176 0.0493,-0.05925 0.0748,-0.08812 0.19164,-0.21695 -0.0715,0.08934 0.10472,-0.116948 0.0165,-0.0191 0.0326,-0.03859 0.0496,-0.05735 0.0139,-0.01537 0.03,-0.02876 0.0429,-0.04504 0.0277,-0.03521 0.0467,-0.07674 0.0744,-0.111916 0.003,-0.0034 0.008,-0.0042 0.0113,-0.0063 0.008,-0.01336 0.0169,-0.02674 0.0253,-0.04012 0.018,-0.01172 0.0236,-0.03448 0.0392,-0.04814 0.002,-0.0019 0.003,0.0088 0.005,0.0068 0.0345,-0.03305 0.0581,-0.08423 0.0851,-0.123532 0.89573,-1.255138 -2.64928,-1.758349 -3.369,-2.134166 -0.0311,-0.01622 -0.0366,0.05984 -0.0554,0.0894 -0.009,0.01376 -0.0183,0.02703 -0.0275,0.04054 -0.0467,0.07152 -0.0986,0.139475 -0.14733,0.209474 -0.0638,0.09168 -0.0156,0.0355 -0.0709,0.09576 -0.0204,0.02154 -0.0703,0.07742 -0.0949,0.09471 -0.004,0.0029 -0.0106,-0.0021 -0.0151,2.65e-4 -0.023,0.01214 -0.0462,0.04301 -0.0617,0.06068 -0.9653,1.299977 3.00896,2.171893 3.26744,2.315689 0.0308,0.01714 0.0515,-0.04813 0.0781,-0.07136 0.0159,-0.01394 0.0328,-0.02675 0.0491,-0.04012 0.10125,-0.07311 0.13861,-0.217623 0.1923,-0.327057 0.0568,-0.101219 0.11157,-0.203774 0.14391,-0.315807 -5.3e-4,-0.0013 -0.002,-0.0053 -0.002,-0.004 0.0118,0.04521 0.021,-0.02426 0.0552,-0.08487 -1.13537,-0.686602 -2.24816,-1.41201 -3.4061,-2.059811 -0.0393,-0.02196 -0.0483,0.07592 -0.0731,0.113393 -0.009,0.01371 -0.0192,0.02671 -0.0288,0.04007 -0.0424,0.05293 -0.0949,0.143605 -0.14987,0.183541 -0.0146,0.01058 -0.0315,0.01741 -0.0473,0.02609 -0.0206,0.01614 -0.0411,0.03231 -0.0617,0.04846 -0.0677,0.04824 -0.11407,0.116026 -0.1601,0.183632 -0.8321,1.222137 1.88445,1.429718 3.23793,2.312667 0.0749,-0.08623 0.10546,-0.135173 0.18873,-0.196641 0.0746,-0.05505 0.0563,-0.01765 0.1278,-0.0932 0.0563,-0.05945 0.0742,-0.09823 0.11469,-0.166849 0.0771,-0.10093 0.0974,-0.223242 0.13747,-0.339989 0.0133,-0.0388 0.0434,-0.11148 0.0592,-0.150382 0.0129,-0.05553 0.025,-0.113577 0.0425,-0.168007 0.005,-0.0164 0.01,-0.03343 0.019,-0.04808 0.005,-0.0082 0.0176,-0.02676 0.0222,-0.01836 0.009,0.01551 0.0127,0.06097 -0.003,0.05301 -1.1767,-0.591939 -2.33861,-1.21282 -3.50791,-1.819232 0.0147,-0.05213 0.12141,-0.153731 0.0801,-0.04097 0,0 3.38161,1.954967 3.38161,1.954967 v 0 c 0.0719,-0.10807 0.1465,-0.21381 0.19488,-0.335574 -0.25803,-0.134713 -3.04907,-3.084327 -3.56365,-1.750097 -0.0376,0.0975 -0.0497,0.202179 -0.083,0.300701 -0.0275,0.133599 -0.0702,0.263854 -0.14109,0.381215 -0.0348,0.03507 -0.0406,0.03573 -0.0852,0.05178 -0.11301,0.04062 -0.10911,0.0273 -0.0723,-0.107148 1.09455,0.715275 2.19977,1.414473 3.28364,2.145829 0.0167,0.01127 -0.0275,0.03282 -0.0469,0.03817 -0.009,0.0024 0.003,-0.0182 0.006,-0.02689 0.0117,-0.03472 0.0417,-0.0565 0.0674,-0.08056 0.0833,-0.06332 0.1669,-0.129741 0.24217,-0.202655 0.0125,-0.01207 0.0219,-0.02715 0.035,-0.03851 0.007,-0.0062 0.0168,-0.0091 0.0252,-0.01365 0.0125,-0.0056 0.035,-0.03029 0.0374,-0.01683 0.005,0.02664 -0.003,0.0902 -0.0269,0.07657 -1.13995,-0.665014 -2.26661,-1.353328 -3.37901,-2.063472 -0.0223,-0.01426 0.0246,-0.05612 0.0506,-0.06134 0.0429,-0.0086 -0.10512,0.134898 -0.052,0.120642 0.002,0.07482 -0.0166,0.142881 -0.0602,0.205031 -0.1262,0.193779 0.0207,-0.03322 -0.0596,0.09408 -0.009,0.01455 -0.0399,0.05967 -0.0295,0.02838 0.0276,-0.08351 0.048,-0.04127 0.0285,-0.07524 -2.6e-4,-0.01654 -0.006,-0.11321 0.0245,-0.0959 1.1488,0.652177 4.23628,1.029166 3.22503,2.193652 0.0668,-0.05763 0.11236,-0.134339 0.16111,-0.206793 0.0617,-0.08981 0.12105,-0.186229 0.20746,-0.254333 0.0123,-0.0082 0.0241,-0.03195 0.0369,-0.02455 0.0123,0.0071 0.006,0.04897 -0.007,0.0421 -1.15328,-0.638625 -2.31346,-1.266539 -3.44029,-1.95076 -0.0337,-0.02045 0.0414,-0.06717 0.0645,-0.09903 0.006,-0.0079 0.0121,-0.0182 0.0217,-0.01958 0.006,-7.94e-4 -0.003,0.01143 -0.005,0.01714 -0.01,0.02307 -0.0172,0.02328 -0.033,0.04146 -0.0316,0.03633 -0.0566,0.07617 -0.0826,0.11643 -0.0169,0.02514 -0.0338,0.04942 -0.0476,0.07681 -0.004,0.0075 -0.004,0.01648 -0.007,0.02421 -0.013,0.03066 -0.0394,0.05505 -0.0656,0.07412 -0.0189,0.008 -0.0531,0.0288 -0.0608,0.0098 -0.007,-0.01699 -0.0175,-0.06361 -0.001,-0.05489 1.14613,0.621414 2.29045,1.247037 3.41544,1.905953 0.0238,0.01394 -0.0337,0.04404 -0.0538,0.06299 -0.0101,0.0096 -0.0238,0.01434 -0.0357,0.02151 -0.0138,0.0099 -0.0249,0.02561 -0.0414,0.02974 -0.006,0.0016 -0.007,-0.01106 -0.009,-0.01712 -0.003,-0.0074 -0.008,-0.01529 -0.006,-0.02299 0.005,-0.02093 0.0189,-0.03883 0.0261,-0.05913 0.0102,-0.02858 0.007,-0.06118 0.0257,-0.08733 0.0346,-0.07526 0.0763,-0.140195 0.12005,-0.210428 0.0479,-0.07692 0.0914,-0.156816 0.14964,-0.226992 0.056,-0.0824 0.10966,-0.164549 0.17521,-0.239789 0.004,-0.0042 0.0542,-0.06593 0.0727,-0.06384 0.009,0.0011 0.003,0.01775 0.004,0.02663 -1.14692,-0.646075 -2.30738,-1.268695 -3.44077,-1.938223 -0.0237,-0.01402 0.0329,-0.04503 0.0546,-0.06209 0.006,-0.0047 0.0212,-0.0061 0.0225,0.0013 0.008,0.04117 -0.0478,0.147812 -0.0538,0.188685 -0.0104,0.07614 -0.0225,0.156707 -0.0617,0.223673 -0.0669,0.08728 -0.13036,0.177287 -0.1946,0.266311 -0.0869,0.133313 -0.15809,0.274844 -0.24048,0.410988 -0.0938,0.122679 -0.29111,0.384365 -0.43124,0.439124 -0.0208,0.0081 -0.0447,0.0013 -0.0671,0.0019 -0.0266,0.0016 -0.0755,0.0075 -0.1034,-5.3e-4 -0.0148,-0.0042 -0.0544,-0.0285 -0.041,-0.02109 1.13359,0.624525 4.1657,1.00275 3.33225,1.992913 -0.01,0.01167 -0.0257,0.0163 -0.0386,0.02447 -0.0323,0.0172 -0.0573,0.0355 -0.0574,0.01405 -2.6e-4,-0.05993 0.15619,-0.228129 0.18622,-0.281118 0.0856,-0.106714 0.16864,-0.214095 0.24503,-0.327715 0.0308,-0.0458 0.0586,-0.09361 0.0901,-0.138922 0.0345,-0.04963 0.0743,-0.09547 0.10787,-0.145762 0.0334,-0.05004 0.0617,-0.103253 0.0925,-0.154882 0.0765,-0.144023 0.12597,-0.244594 0.21754,-0.383167 0.0487,-0.07367 0.10412,-0.142668 0.15455,-0.215164 0.0497,-0.07151 0.0966,-0.144978 0.14589,-0.216802 0.21042,-0.306668 0.0961,-0.115613 0.2629,-0.420058 0.0294,-0.06627 0.0618,-0.131294 0.0883,-0.198819 0.0258,-0.06595 0.0981,-0.294846 0.11631,-0.36718 0.0287,-0.113985 0.0385,-0.233059 0.078,-0.344485 z" />
    <path
       style="fill:#ffffff;fill-opacity:1;stroke:none;stroke-width:0.101;stroke-linecap:round;stroke-linejoin:round;stroke-dasharray:none;stroke-opacity:1;paint-order:fill markers stroke"
       d="m 157.65859,98.854947 -1.42213,4.828643 v 0 l 5.88698,0.62839 -0.66146,-5.027085 z"
       id="path19" />
    <ellipse
       style="fill:#ffffff;fill-opacity:1;stroke:none;stroke-width:0.599073;stroke-linecap:round;stroke-linejoin:round;stroke-dasharray:none;stroke-opacity:1;paint-order:fill markers stroke"
       id="path21"
       cx="101.28529"
       cy="153.66875"
       rx="19.374966"
       ry="17.92547" />
  </g>
</svg>
